<?xml version="1.0" encoding="UTF-8" standalone="no"?>
<!DOCTYPE svg PUBLIC "-//W3C//DTD SVG 1.1//EN" "http://www.w3.org/Graphics/SVG/1.1/DTD/svg11.dtd">
<svg width="100%" height="100%" viewBox="0 0 256 256" version="1.1" xmlns="http://www.w3.org/2000/svg" xmlns:xlink="http://www.w3.org/1999/xlink" xml:space="preserve" xmlns:serif="http://www.serif.com/" style="fill-rule:evenodd;clip-rule:evenodd;stroke-linejoin:round;stroke-miterlimit:2;">
    <g transform="matrix(1.4382,0,0,1.86861,-30.2022,-89.6934)">
        <g id="mk-logo">
            <g id="mk-curves" serif:id="mk curves">
                <path d="M71.483,104.872C73.023,102.363 74.98,100.508 77.357,99.306C79.734,98.104 82.597,97.503 85.947,97.503C92.058,97.503 96.369,99.323 98.882,102.964C101.394,106.605 102.65,113.46 102.65,123.529L102.65,157.447L91.243,157.447L91.243,123.947C91.243,115.69 90.643,110.56 89.443,108.556C88.244,106.553 86.06,105.551 82.891,105.551C79.27,105.551 76.791,106.623 75.456,108.765C74.12,110.908 73.453,115.969 73.453,123.947L73.453,157.447L62.045,157.447L62.045,123.947C62.045,115.585 61.4,110.429 60.11,108.478C58.82,106.527 56.5,105.551 53.15,105.551C49.846,105.551 47.548,106.623 46.258,108.765C44.968,110.908 44.323,115.969 44.323,123.947L44.323,157.447L32.983,157.447L32.983,98.914L44.323,98.914L44.323,103.931C45.817,101.841 47.684,100.247 49.925,99.149C52.165,98.052 54.712,97.503 57.564,97.503C61.004,97.503 63.867,98.113 66.153,99.332C68.439,100.552 70.216,102.398 71.483,104.872Z" style="fill:rgb(76,174,79);fill-rule:nonzero;"/>
                <path d="M126.72,76.128L139.621,76.128L139.621,123.216L172.418,98.914L187.628,98.914L157.683,120.968L192.313,157.447L177.035,157.447L148.924,127.24L139.621,133.981L139.621,157.447L126.72,157.447L126.72,76.128Z" style="fill:rgb(76,174,79);fill-rule:nonzero;"/>
            </g>
        </g>
    </g>
</svg>
